<?xml version="1.0" standalone="no"?>
<!DOCTYPE svg PUBLIC "-//W3C//DTD SVG 20010904//EN"
 "http://www.w3.org/TR/2001/REC-SVG-20010904/DTD/svg10.dtd">
<svg version="1.0" xmlns="http://www.w3.org/2000/svg"
 width="500.000000pt" height="500.000000pt" viewBox="0 0 500.000000 500.000000"
 preserveAspectRatio="xMidYMid meet">
<metadata>
Created by potrace 1.14, written by Peter Selinger 2001-2017
</metadata>
<g transform="translate(0.000000,500.000000) scale(0.100000,-0.100000)"
fill="#000000" stroke="none">
<path d="M710 4642 c0 -5 -26 -8 -57 -7 -32 2 -62 0 -68 -3 -5 -4 -17 -7 -25
-8 -28 -1 -70 -16 -70 -24 0 -4 -9 -10 -21 -13 -12 -3 -18 -10 -14 -16 3 -6
-1 -11 -10 -11 -9 0 -13 -4 -10 -10 3 -5 1 -10 -5 -10 -6 0 -8 -4 -5 -10 3 -5
0 -10 -7 -10 -9 0 -9 -3 2 -10 10 -6 11 -10 3 -10 -8 0 -13 -14 -13 -34 0 -19
-5 -38 -10 -41 -8 -5 -8 -11 0 -20 8 -10 7 -14 -2 -18 -11 -4 -11 -6 0 -6 10
-1 10 -6 2 -21 -8 -15 -8 -20 1 -20 9 0 9 -3 0 -14 -9 -10 -9 -16 -1 -21 8 -5
8 -11 1 -19 -6 -7 -7 -16 -3 -20 7 -8 10 -95 13 -413 1 -133 5 -193 13 -193 8
0 8 -2 0 -8 -12 -8 -12 85 -14 -1764 -1 -946 -4 -1248 -13 -1248 -9 0 -9 -2
-1 -8 6 -4 12 -27 13 -52 2 -25 3 -51 4 -57 0 -7 3 -13 7 -13 3 0 6 -10 7 -23
2 -23 61 -80 75 -71 4 3 8 0 8 -6 0 -7 7 -10 15 -6 8 3 19 -2 24 -12 6 -9 11
-12 11 -7 0 11 86 12 97 2 3 -4 12 -2 19 4 8 7 14 7 19 -1 3 -6 11 -7 18 -3
17 10 110 10 125 0 7 -6 12 -6 12 0 0 11 42 9 61 -3 7 -4 10 -3 6 2 -7 12 264
11 283 -1 8 -5 11 -4 7 2 -7 11 136 9 154 -3 7 -4 9 -3 6 2 -7 12 144 10 163
-1 9 -5 11 -4 6 3 -8 13 20 12 42 -1 6 -5 12 -4 12 1 0 10 42 8 61 -4 8 -4 9
-3 5 4 -8 13 20 12 42 -1 6 -5 12 -4 12 0 0 11 50 10 67 0 6 -4 15 -3 18 3 5
8 11 8 20 0 7 -6 15 -7 18 -3 6 10 89 9 104 0 7 -4 15 -3 18 3 5 8 11 8 20 0
7 -6 15 -7 18 -3 6 10 89 9 105 -1 7 -4 12 -4 12 1 0 4 39 8 87 7 49 0 92 2
97 4 14 8 56 9 56 2 0 -7 59 -4 67 3 3 3 15 2 28 -3 13 -5 26 -6 29 -3 12 12
56 12 56 0 0 -8 3 -8 8 -2 9 13 20 15 106 20 39 3 89 7 111 10 22 3 55 6 72 7
18 0 31 4 28 7 -2 4 12 7 31 6 18 -1 34 1 34 4 0 4 10 8 23 8 29 2 49 7 65 16
7 5 12 3 12 -5 0 -10 2 -10 9 1 5 7 14 10 20 7 6 -4 11 -2 11 5 0 6 8 9 20 6
11 -3 20 -1 20 4 0 5 12 9 26 9 14 0 23 4 20 9 -3 4 10 7 29 6 22 -1 36 4 40
13 3 8 8 12 12 9 3 -3 18 0 34 9 16 8 31 14 34 14 12 -2 65 25 65 33 0 5 5 5
10 2 11 -7 70 15 70 26 0 3 18 12 40 19 22 7 40 17 40 21 0 5 7 5 17 2 11 -4
14 -3 9 5 -6 11 5 17 27 13 4 0 7 4 7 9 0 6 7 10 15 10 8 0 15 4 15 10 0 5 3
9 8 8 15 -3 42 15 35 25 -3 5 -1 7 4 4 6 -4 22 2 36 13 14 11 29 20 34 20 5 0
15 9 23 19 7 11 17 18 21 16 3 -3 22 10 41 28 19 17 38 33 42 33 5 1 35 26 69
55 33 30 64 53 69 52 4 -2 8 2 8 7 0 6 20 30 45 54 24 24 41 46 38 50 -4 3 0
6 7 6 13 0 60 49 60 63 0 4 7 7 16 7 8 0 12 5 9 10 -3 6 1 13 9 16 9 3 14 10
11 14 -3 5 1 12 8 17 23 13 87 109 79 118 -4 5 -1 5 6 1 7 -4 15 0 19 11 3 10
13 26 21 36 8 9 11 17 6 17 -5 0 1 7 13 15 14 10 20 21 16 32 -4 10 -2 14 4
10 10 -6 27 27 24 46 -1 4 4 7 9 7 6 0 10 7 10 15 0 9 7 18 15 21 8 4 13 10
10 14 -6 10 15 60 25 60 4 0 11 16 14 36 4 19 14 38 21 41 8 3 12 10 9 15 -4
6 0 14 7 19 12 7 11 9 -1 9 -10 0 -11 3 -3 8 6 4 13 16 15 27 1 11 6 23 11 26
4 3 10 16 13 30 3 13 6 29 7 34 2 6 5 15 9 20 3 6 12 36 19 67 8 34 17 54 24
50 5 -3 4 1 -3 10 -8 10 -9 19 -3 22 5 4 8 15 6 26 -2 11 0 20 4 20 4 0 8 6 8
13 1 6 4 32 8 57 4 25 7 52 7 60 1 8 5 20 10 27 6 7 5 14 -2 18 -8 5 -8 11 1
21 9 11 9 14 0 14 -7 0 -9 5 -4 13 10 15 12 42 12 172 1 168 -2 225 -13 225
-6 0 -5 4 3 9 9 6 10 11 2 15 -6 4 -9 12 -6 17 3 5 2 25 -4 44 -6 24 -6 35 1
35 7 0 7 4 1 13 -6 6 -10 19 -10 27 0 8 -6 35 -12 59 -7 23 -10 45 -7 49 3 3
-2 11 -12 18 -10 8 -12 13 -5 14 9 0 10 7 3 24 -5 13 -6 27 -3 30 4 3 1 6 -5
6 -7 0 -12 11 -12 24 0 14 -4 27 -9 30 -5 4 -8 17 -7 31 2 14 -1 22 -7 18 -6
-4 -8 2 -5 15 4 12 2 20 -3 16 -5 -3 -9 6 -9 20 0 14 -4 28 -10 31 -5 3 -10
15 -10 26 0 10 -4 19 -10 19 -5 0 -7 7 -4 15 4 8 1 15 -7 15 -7 0 -9 3 -6 7 4
3 -1 12 -11 19 -11 9 -13 13 -4 14 9 0 7 9 -8 30 -12 16 -18 34 -15 40 3 5 -1
10 -9 10 -10 0 -13 6 -10 15 4 8 1 15 -5 15 -6 0 -11 9 -11 20 0 11 -6 23 -14
26 -8 3 -18 19 -21 35 -4 16 -10 29 -14 29 -4 0 -14 12 -22 28 -8 15 -20 33
-27 40 -7 8 -9 18 -6 24 4 7 2 8 -4 4 -7 -4 -12 -1 -12 8 0 9 -4 16 -9 16 -5
0 -12 8 -15 18 -3 9 -17 29 -30 43 -14 15 -22 30 -19 33 4 3 2 6 -3 6 -6 0
-25 20 -44 45 -18 24 -38 41 -43 38 -6 -3 -7 -1 -3 5 3 6 -3 17 -14 25 -11 7
-18 16 -15 19 3 2 -6 11 -20 18 -14 7 -25 18 -25 24 -1 6 -18 25 -39 41 -21
17 -37 33 -34 38 2 4 -1 7 -7 7 -5 0 -24 14 -42 30 -17 17 -38 30 -47 30 -14
0 -14 2 -1 10 13 8 12 10 -2 10 -10 0 -18 5 -18 11 0 5 -5 7 -10 4 -6 -3 -13
1 -16 9 -3 9 -10 16 -15 16 -10 0 -24 10 -60 43 -10 9 -25 17 -33 17 -8 0 -16
7 -20 15 -3 8 -12 15 -21 15 -8 0 -15 5 -15 11 0 5 -4 7 -10 4 -5 -3 -10 -1
-10 4 0 6 -7 11 -15 11 -8 0 -15 3 -15 8 0 8 -61 38 -72 34 -5 -1 -8 3 -8 9 0
6 -7 8 -16 5 -8 -3 -13 -2 -10 3 6 9 -22 26 -36 23 -5 -1 -8 2 -8 8 0 5 -5 10
-12 10 -19 0 -88 33 -88 43 0 4 -4 6 -9 3 -12 -8 -42 4 -36 14 3 5 -4 6 -15 3
-11 -3 -20 0 -20 6 0 6 -11 11 -25 11 -14 0 -33 4 -43 9 -29 16 -56 24 -71 22
-7 -1 -10 2 -7 7 3 6 -2 8 -14 5 -11 -3 -20 -1 -20 4 0 5 -10 10 -22 11 -38 4
-52 7 -66 16 -7 4 -16 6 -19 3 -2 -3 -21 0 -41 7 -21 7 -43 11 -49 9 -7 -3
-13 0 -13 5 0 5 -16 8 -35 7 -19 -2 -35 2 -35 7 0 6 -8 4 -17 -3 -9 -8 -14 -9
-10 -3 4 7 -9 11 -36 13 -23 1 -58 4 -77 7 -19 2 -78 6 -131 8 -52 1 -100 6
-106 9 -7 4 -15 2 -19 -4 -4 -8 -9 -7 -15 2 -5 8 -9 9 -9 3 0 -6 -19 -8 -55
-4 -36 4 -55 2 -55 -4 0 -6 -5 -4 -10 4 -9 13 -10 13 -10 0 0 -9 -3 -11 -8 -5
-4 6 -25 10 -47 10 -22 0 -43 -4 -47 -10 -5 -7 -8 -6 -8 0 0 6 -9 11 -20 11
-11 0 -20 -5 -20 -11 0 -6 -3 -7 -8 0 -4 6 -27 10 -52 10 -25 0 -48 -4 -52
-10 -5 -7 -8 -6 -8 0 0 6 -9 11 -20 11 -11 0 -20 -5 -20 -11 0 -5 -5 -3 -10 5
-5 8 -10 10 -10 5 0 -12 -46 -13 -57 -2 -3 4 -12 2 -20 -4 -10 -9 -13 -8 -13
2 0 9 -3 10 -8 4 -9 -13 -62 -15 -62 -2 0 6 -5 6 -12 0 -14 -10 -866 -10 -893
0 -8 4 -15 1 -15 -5 0 -6 -8 -3 -19 6 -11 10 -22 13 -25 8 -3 -5 -15 -12 -26
-15 -13 -3 -18 -1 -13 6 4 6 -2 8 -17 4 -13 -3 -32 -2 -42 4 -10 5 -18 6 -18
1z m1803 -640 c4 10 8 10 16 -2 6 -8 11 -10 11 -5 0 6 9 11 20 11 11 0 20 -3
20 -6 0 -3 26 -6 58 -6 97 -2 152 -9 152 -18 0 -4 9 -6 20 -3 11 3 20 2 20 -2
0 -4 14 -6 30 -5 17 1 30 -2 30 -6 0 -7 41 -18 83 -23 9 -1 17 -5 17 -9 0 -4
9 -5 20 -3 11 2 20 0 20 -4 0 -5 20 -15 45 -22 25 -7 45 -17 45 -22 0 -5 6 -7
14 -4 8 3 17 -1 20 -9 3 -9 10 -12 16 -9 6 3 17 -1 26 -9 9 -9 19 -14 24 -11
4 3 11 -2 14 -11 3 -8 11 -12 17 -9 6 4 17 -2 25 -14 9 -12 19 -19 24 -16 5 3
15 -1 23 -9 8 -8 17 -12 21 -9 3 4 6 -1 6 -11 0 -9 4 -15 8 -12 5 3 18 -4 30
-14 12 -11 25 -20 29 -20 5 0 15 -9 23 -19 7 -11 17 -18 22 -15 4 3 8 -2 8
-10 0 -9 4 -15 9 -13 5 1 23 -13 40 -30 17 -18 35 -33 40 -33 5 0 13 -9 16
-20 3 -11 12 -20 19 -20 7 0 18 -11 24 -25 6 -14 16 -25 22 -25 5 0 10 -7 10
-16 0 -8 5 -12 10 -9 6 3 10 1 10 -6 0 -6 10 -20 22 -30 11 -11 18 -19 14 -19
-6 0 1 -10 30 -43 19 -21 65 -97 59 -97 -3 0 -1 -6 4 -12 48 -58 60 -76 54
-82 -3 -3 -1 -6 5 -6 7 0 12 -5 12 -10 0 -10 8 -22 38 -55 7 -8 13 -18 14 -22
3 -23 21 -63 28 -63 5 0 7 -9 5 -20 -2 -11 0 -22 5 -25 5 -3 7 -16 4 -29 -6
-33 -30 -77 -37 -69 -4 3 -9 -2 -13 -11 -3 -9 -10 -14 -14 -11 -5 3 -24 -4
-42 -15 -19 -11 -43 -21 -53 -23 -62 -13 -86 -21 -91 -29 -3 -5 -12 -4 -20 3
-8 6 -14 7 -14 2 0 -6 -22 -9 -50 -9 -27 1 -50 -2 -50 -7 0 -4 -6 -5 -12 0 -7
4 -22 8 -33 8 -11 0 -26 4 -32 8 -8 5 -13 3 -13 -5 0 -9 -2 -10 -8 -1 -4 6
-16 13 -27 15 -11 1 -26 9 -33 16 -8 7 -18 10 -23 7 -5 -4 -9 -1 -9 4 0 6 -7
11 -15 11 -8 0 -15 5 -15 10 0 6 -7 10 -16 10 -8 0 -12 5 -9 10 3 6 1 10 -6
10 -14 0 -66 58 -75 83 -3 9 -12 17 -21 17 -8 0 -13 5 -11 12 2 6 -11 25 -29
41 -18 16 -30 33 -27 38 3 5 -1 9 -8 9 -15 0 -54 41 -50 53 1 4 -2 7 -8 7 -10
0 -38 21 -75 57 -13 12 -26 19 -29 16 -3 -3 -8 2 -12 11 -3 9 -10 13 -15 10
-5 -3 -9 -1 -9 5 0 5 -10 13 -22 17 -12 3 -31 15 -42 25 -11 11 -25 18 -31 15
-5 -2 -17 2 -25 9 -19 16 -116 45 -124 38 -3 -4 -6 -1 -6 6 0 7 -7 11 -15 8
-8 -4 -17 -2 -20 3 -3 5 -12 7 -20 4 -8 -4 -28 -1 -45 5 -17 5 -28 7 -26 2 6
-10 -98 -6 -115 5 -8 4 -10 3 -5 -4 6 -11 -28 -18 -58 -13 -4 1 -15 -4 -24
-11 -13 -11 -14 -11 -7 2 8 13 6 13 -8 2 -9 -8 -26 -15 -39 -17 -39 -6 -66
-13 -86 -24 -11 -6 -22 -7 -26 -4 -3 3 -6 1 -6 -6 0 -8 -7 -11 -15 -7 -8 3
-15 2 -15 -3 0 -8 -38 -24 -52 -22 -5 1 -8 -4 -8 -10 0 -5 -4 -8 -8 -5 -8 5
-82 -40 -114 -68 -10 -9 -22 -16 -27 -16 -6 0 -17 -10 -25 -22 -9 -12 -16 -19
-16 -15 0 4 -6 2 -14 -5 -8 -7 -12 -16 -9 -20 2 -5 -1 -8 -7 -8 -12 0 -74 -60
-62 -60 4 0 3 -4 -3 -8 -28 -20 -111 -167 -107 -189 2 -7 -2 -13 -8 -13 -6 0
-8 -4 -5 -10 3 -5 1 -10 -5 -10 -6 0 -8 -5 -5 -10 4 -6 1 -17 -5 -25 -7 -8 -9
-15 -5 -15 4 0 2 -7 -5 -15 -10 -12 -10 -15 1 -15 9 0 10 -3 3 -8 -6 -4 -11
-14 -12 -22 -1 -8 -4 -33 -8 -55 -8 -42 -10 -213 -4 -277 2 -21 9 -38 15 -38
5 0 4 -4 -4 -9 -9 -6 -10 -11 -2 -15 6 -4 9 -12 6 -17 -4 -5 -3 -9 2 -9 4 0 9
-14 10 -31 1 -17 7 -37 13 -44 6 -7 10 -17 9 -21 -3 -20 14 -53 24 -47 6 4 7
1 3 -6 -5 -7 3 -29 18 -51 14 -22 26 -42 26 -45 0 -4 6 -12 13 -20 6 -7 23
-28 37 -46 32 -42 80 -89 92 -89 5 0 6 -5 3 -10 -3 -6 -1 -10 4 -10 6 0 31
-15 55 -34 24 -18 65 -43 90 -55 25 -13 46 -26 46 -30 0 -4 6 -8 13 -9 28 -2
87 -23 87 -31 0 -4 6 -8 13 -9 6 0 26 -4 42 -7 17 -4 36 -8 43 -8 6 0 12 -5
12 -10 0 -5 7 -7 15 -3 8 3 15 2 15 -2 0 -5 11 -9 25 -10 47 -3 55 -5 55 -14
0 -5 5 -6 12 -2 13 8 70 10 84 2 14 -7 97 -3 112 6 7 4 12 2 12 -5 0 -7 4 -8
13 -2 6 5 26 10 42 12 17 2 45 9 64 17 18 8 37 11 42 8 5 -3 9 0 9 5 0 6 9 11
19 11 11 0 21 3 23 8 2 4 20 16 41 26 46 24 148 111 140 120 -4 3 0 6 8 6 8 0
23 16 33 35 10 19 23 32 27 29 5 -3 9 4 9 15 0 11 7 24 15 28 8 5 26 24 40 43
14 19 25 30 25 25 0 -4 10 3 23 17 30 34 107 92 107 81 0 -4 6 -1 13 8 7 9 16
16 20 17 4 0 22 6 40 12 44 17 56 21 127 37 26 6 243 7 295 2 17 -2 33 -8 37
-14 5 -6 8 -5 8 3 0 9 5 10 18 4 9 -5 27 -8 38 -6 17 3 23 -2 26 -26 2 -16 1
-27 -3 -25 -9 6 -21 -24 -13 -36 3 -5 1 -9 -5 -9 -6 0 -8 -6 -5 -14 3 -7 -1
-20 -8 -27 -12 -13 -17 -29 -20 -66 -1 -7 -5 -13 -10 -13 -5 0 -6 -5 -3 -10 3
-6 1 -10 -5 -10 -6 0 -8 -4 -5 -10 3 -5 2 -10 -4 -10 -6 0 -8 -7 -5 -15 4 -8
1 -15 -5 -15 -6 0 -10 -3 -9 -7 3 -11 -44 -107 -54 -111 -5 -2 -6 -8 -2 -13 3
-5 0 -9 -6 -9 -6 0 -9 -4 -6 -9 3 -4 -3 -16 -14 -26 -11 -10 -20 -24 -20 -32
0 -7 -5 -13 -11 -13 -5 0 -8 -4 -5 -9 3 -5 -1 -12 -10 -15 -8 -3 -13 -10 -9
-15 3 -5 -5 -17 -17 -25 -12 -9 -19 -16 -15 -16 10 0 -4 -16 -74 -91 -31 -32
-54 -59 -51 -59 3 0 -5 -9 -18 -20 -13 -11 -27 -20 -31 -20 -4 0 -11 -9 -14
-20 -4 -11 -10 -18 -14 -16 -4 3 -26 -13 -49 -34 -23 -22 -42 -36 -42 -32 -1
4 -10 -4 -21 -18 -12 -14 -23 -24 -25 -22 -12 7 -24 0 -18 -10 5 -8 2 -9 -10
-5 -10 4 -19 1 -22 -8 -4 -8 -12 -15 -20 -15 -8 0 -14 -5 -14 -10 0 -6 -3 -9
-7 -9 -21 3 -33 -2 -27 -13 4 -6 3 -8 -4 -4 -6 3 -13 2 -17 -4 -4 -6 -11 -8
-16 -5 -5 4 -12 -1 -15 -10 -4 -9 -13 -14 -20 -11 -8 3 -14 1 -14 -5 0 -6 -5
-7 -10 -4 -6 3 -13 0 -16 -9 -3 -8 -12 -12 -19 -10 -7 3 -16 0 -20 -5 -3 -6
-11 -9 -16 -6 -5 4 -9 1 -9 -4 0 -6 -9 -11 -19 -11 -11 0 -23 -5 -26 -10 -4
-6 -10 -8 -14 -5 -5 2 -26 -4 -47 -14 -21 -11 -42 -17 -46 -14 -5 2 -8 1 -8
-4 0 -4 -17 -9 -37 -11 -20 -1 -39 -6 -43 -10 -3 -5 -17 -8 -32 -7 -16 1 -28
-2 -28 -8 0 -5 -13 -7 -30 -5 -16 3 -30 1 -30 -4 0 -5 -10 -6 -21 -3 -16 5
-19 4 -14 -5 6 -9 4 -11 -6 -5 -19 12 -49 14 -55 3 -3 -4 -14 -3 -25 2 -14 8
-19 7 -19 -2 0 -9 -3 -9 -10 2 -6 9 -10 10 -10 3 0 -6 -9 -11 -20 -10 -11 1
-20 5 -20 10 0 5 -7 4 -16 -4 -13 -10 -17 -10 -25 2 -7 12 -9 12 -9 -1 0 -12
-2 -12 -9 -1 -7 10 -13 11 -31 1 -15 -8 -20 -8 -16 -1 4 6 4 11 1 11 -4 0 -16
-5 -27 -11 -15 -8 -19 -8 -14 0 5 7 -8 11 -38 11 -25 0 -46 4 -46 8 0 4 -10 9
-22 10 -64 5 -88 9 -94 15 -4 4 -18 7 -30 7 -13 0 -26 5 -29 10 -3 6 -15 10
-26 10 -10 0 -19 4 -19 10 0 5 -6 7 -14 4 -7 -3 -30 4 -50 15 -20 11 -36 18
-36 16 0 -3 -15 2 -32 12 -18 9 -36 16 -40 15 -5 -1 -8 3 -8 9 0 6 -6 9 -12 7
-7 -3 -18 0 -25 6 -25 22 -39 31 -53 34 -8 2 -32 15 -53 30 -21 15 -47 32 -57
38 -11 6 -34 23 -50 38 -16 14 -32 26 -36 26 -12 0 -33 28 -26 35 4 5 2 5 -4
2 -12 -7 -156 128 -147 137 4 3 -1 6 -10 6 -9 0 -17 7 -17 15 0 7 -8 19 -17
24 -10 6 -15 11 -11 11 4 0 -3 11 -15 24 -38 41 -46 54 -40 60 4 3 -2 6 -12 6
-10 0 -15 3 -12 6 3 4 -3 18 -13 32 -11 13 -20 30 -20 36 0 6 -9 18 -19 25
-11 8 -17 20 -14 28 3 7 0 13 -7 13 -6 0 -9 4 -6 9 4 5 2 11 -3 13 -5 1 -11
10 -13 18 -2 8 -9 21 -16 28 -7 8 -10 18 -7 23 4 5 1 9 -5 9 -6 0 -9 4 -6 9 3
5 -1 11 -9 15 -8 3 -12 12 -9 21 4 8 1 21 -5 29 -6 7 -8 16 -4 19 3 4 1 7 -5
7 -7 0 -12 9 -12 20 0 11 -5 20 -11 20 -8 0 -8 4 0 14 7 9 8 15 2 18 -5 1 -12
14 -14 28 -2 14 -7 32 -11 41 -4 9 -9 29 -11 45 -2 16 -4 29 -5 29 -2 0 -8 51
-11 92 -1 18 -5 33 -8 33 -4 0 -6 54 -6 119 0 80 -3 117 -10 113 -6 -3 -5 0 1
9 6 8 10 24 9 37 -1 12 1 22 5 22 6 0 11 43 14 117 0 17 4 29 8 27 4 -2 7 4 7
13 0 28 8 65 19 94 6 15 8 30 5 33 -4 3 0 6 8 6 11 0 11 2 -1 10 -10 6 -11 10
-2 10 6 0 12 6 12 14 0 7 7 26 14 42 8 15 13 31 10 36 -3 4 0 8 7 8 7 0 9 3 6
7 -4 3 -2 12 3 19 6 6 9 17 8 22 -2 6 6 18 17 27 11 9 13 13 5 9 -9 -5 -8 1 5
15 11 13 18 24 16 25 -6 2 38 84 49 91 6 4 8 11 5 16 -4 5 1 12 9 15 9 3 14
10 11 14 -3 5 5 16 17 25 13 8 21 18 18 21 -3 2 4 16 15 29 11 14 28 35 38 46
9 12 17 26 17 31 0 5 4 7 9 4 10 -6 26 23 22 39 -2 6 0 7 4 4 3 -4 29 17 57
47 29 29 57 50 62 47 6 -3 8 -3 4 2 -7 7 14 35 27 35 3 0 17 12 30 26 14 15
25 24 25 20 0 -4 6 -1 14 6 8 7 26 22 42 33 15 11 32 25 38 30 6 6 18 11 26
13 8 2 22 10 31 18 9 8 26 16 37 17 11 0 19 4 16 8 -3 6 15 18 36 24 3 0 26
11 52 23 26 12 54 22 63 22 9 0 14 4 11 9 -4 5 2 8 11 7 10 -2 28 3 40 11 12
8 27 12 33 8 5 -3 10 -2 10 4 0 5 9 8 20 6 11 -2 20 0 20 6 0 5 11 9 23 9 13
0 27 3 31 7 4 4 17 8 29 10 12 1 40 5 62 8 22 4 47 7 55 8 8 0 18 5 22 11 5 7
8 6 8 -3 0 -9 4 -10 13 -4 6 6 31 10 55 9 24 -1 48 2 55 6 6 4 17 2 23 -3 8
-7 14 -6 17 3z"/>
</g>
</svg>
